<?xml version="1.0" encoding="UTF-8"?>
<svg width="16px" height="16px" viewBox="0 0 16 16" version="1.1" xmlns="http://www.w3.org/2000/svg" xmlns:xlink="http://www.w3.org/1999/xlink">
    <!-- Generator: Sketch 55.2 (78181) - https://sketchapp.com -->
    <title>Legende</title>
    <desc>Created with Sketch.</desc>
    <g id="Web---Mobile" stroke="none" stroke-width="1" fill="none" fill-rule="evenodd">
        <g id="13_Tabelle" transform="translate(-343.000000, -163.000000)" stroke="#ACACAC" stroke-width="1.5">
            <g id="Content" transform="translate(0.000000, 149.000000)">
                <g id="Section">
                    <g id="Legende">
                        <g id="Group" transform="translate(343.000000, 14.000000)">
                            <path d="M5.19055233,12.6296823 L8,11.1526682 L10.8094477,12.6296823 C10.9067779,12.6808518 11.018262,12.6985091 11.1266408,12.6799207 C11.398809,12.6332402 11.5816029,12.3747622 11.5349224,12.102594 L10.9983656,8.97422805 L13.2712565,6.75870698 C13.3499984,6.68195268 13.401242,6.58138147 13.4170542,6.47256295 C13.456763,6.19929052 13.2674223,5.9455691 12.9941499,5.90586029 L9.85309187,5.44943785 L8.44836804,2.60315647 C8.39970292,2.50455017 8.31988916,2.42473641 8.22128286,2.37607129 C7.97365603,2.25386014 7.67384311,2.35552964 7.55163196,2.60315647 L6.14690813,5.44943785 L3.00585014,5.90586029 C2.89703162,5.92167255 2.79646042,5.97291613 2.71970612,6.05165795 C2.52695551,6.24939974 2.53100166,6.56595637 2.72874345,6.75870698 L5.00163436,8.97422805 L4.4650776,12.102594 C4.44648918,12.2109728 4.46414652,12.3224569 4.51531605,12.4197871 C4.64381646,12.6642094 4.94613003,12.7581827 5.19055233,12.6296823 Z" id="Star"></path>
                        </g>
                    </g>
                </g>
            </g>
        </g>
    </g>
</svg>